<mxfile host="app.diagrams.net" modified="2022-03-18T09:14:54.415Z" agent="5.0 (Windows NT 10.0; Win64; x64) AppleWebKit/537.36 (KHTML, like Gecko) Chrome/99.0.4844.51 Safari/537.36" etag="CgNX4uOGgg4mRGeBWs50" version="17.1.3" type="github">
  <diagram id="FKFWnLLk8fKOXIBskQAo" name="Page-1">
    <mxGraphModel dx="782" dy="460" grid="1" gridSize="10" guides="1" tooltips="1" connect="1" arrows="1" fold="1" page="1" pageScale="1" pageWidth="850" pageHeight="1100" math="0" shadow="0">
      <root>
        <mxCell id="0" />
        <mxCell id="1" parent="0" />
        <mxCell id="dLmrY5CZbHAXN9Kvg9BH-1" value="BRI" style="rounded=1;whiteSpace=wrap;html=1;fontSize=36;fontStyle=1" vertex="1" parent="1">
          <mxGeometry x="40" y="70" width="120" height="60" as="geometry" />
        </mxCell>
        <mxCell id="dLmrY5CZbHAXN9Kvg9BH-2" value="&lt;font style=&quot;font-size: 32px&quot;&gt;Victoria&lt;/font&gt;" style="rounded=1;whiteSpace=wrap;html=1;fontSize=36;fontStyle=1" vertex="1" parent="1">
          <mxGeometry x="40" y="180" width="120" height="60" as="geometry" />
        </mxCell>
        <mxCell id="dLmrY5CZbHAXN9Kvg9BH-3" value="&lt;font style=&quot;font-size: 32px&quot;&gt;BTN&lt;/font&gt;" style="rounded=1;whiteSpace=wrap;html=1;fontSize=36;fontStyle=1" vertex="1" parent="1">
          <mxGeometry x="40" y="290" width="120" height="60" as="geometry" />
        </mxCell>
      </root>
    </mxGraphModel>
  </diagram>
</mxfile>
